<svg width="30" height="30" viewBox="0 0 30 30" fill="none" xmlns="http://www.w3.org/2000/svg">
<g id="logos:linkedin-icon" clip-path="url(#clip0_2874_4669)">
<path id="Vector" d="M25.5782 25.4624H21.1504V18.5282C21.1504 16.8747 21.1209 14.7461 18.8475 14.7461C16.5414 14.7461 16.1885 16.5477 16.1885 18.4078V25.4619H11.7609V11.2024H16.0114V13.1512H16.071C16.4963 12.4238 17.111 11.8254 17.8496 11.4198C18.5881 11.0142 19.4229 10.8165 20.2649 10.8477C24.7526 10.8477 25.58 13.7996 25.58 17.6398L25.5782 25.4624ZM6.76477 9.25338C5.34567 9.25361 4.19504 8.10334 4.19481 6.68423C4.19458 5.26513 5.34473 4.11451 6.76384 4.11427C8.18294 4.11392 9.33356 5.26419 9.3338 6.6833C9.33392 7.36478 9.06333 8.0184 8.58155 8.50038C8.09977 8.98236 7.44625 9.25322 6.76477 9.25338ZM8.9787 25.4625H4.54629V11.2024H8.97858V25.4624L8.9787 25.4625ZM27.7856 0.00217493H2.32139C1.11788 -0.0113659 0.130919 0.952719 0.116211 2.15622V27.7266C0.130452 28.9307 1.1173 29.8957 2.32127 29.8831H27.7856C28.9921 29.898 29.9828 28.933 29.9995 27.7266V2.15424C29.9823 0.9484 28.9915 -0.0155683 27.7856 0.000190493" fill="#0A66C2"/>
</g>
<defs>
<clipPath id="clip0_2874_4669">
<rect width="30" height="29.8833" fill="white"/>
</clipPath>
</defs>
</svg>
